HIERARCHY
ROOT Hips
{
	OFFSET -3.958830 18.904000 13.208200
	CHANNELS 6 Xposition Yposition Zposition Zrotation Yrotation Xrotation 
	JOINT LHipJoint
	{
		OFFSET 0.000000 0.000000 0.000000
		CHANNELS 3 Zrotation Yrotation Xrotation
		JOINT LeftUpLeg
		{
			OFFSET 1.800000 -1.400000 0.085000
			CHANNELS 3 Zrotation Yrotation Xrotation
			JOINT LeftLeg
			{
				OFFSET 2.215000 -6.000000 0.000000
				CHANNELS 3 Zrotation Yrotation Xrotation
				JOINT LeftFoot
				{
					OFFSET 2.500000 -6.900000 0.000000
					CHANNELS 3 Zrotation Yrotation Xrotation
					JOINT LeftToeBase
					{
						OFFSET 0.200000 -0.500000 1.950000
						CHANNELS 3 Zrotation Yrotation Xrotation
						End Site
						{
							OFFSET 0.000000 0.000000 0.000000
						}
					}
				}
			}
		}
	}
	JOINT RHipJoint
	{
		OFFSET 0.000000 0.000000 0.000000
		CHANNELS 3 Zrotation Yrotation Xrotation
		JOINT RightUpLeg
		{
			OFFSET -1.800000 -1.400000 0.085000
			CHANNELS 3 Zrotation Yrotation Xrotation
			JOINT RightLeg
			{
				OFFSET -2.215000 -6.000000 0.000000
				CHANNELS 3 Zrotation Yrotation Xrotation
				JOINT RightFoot
				{
					OFFSET -2.500000 -6.900000 0.000000
					CHANNELS 3 Zrotation Yrotation Xrotation
					JOINT RightToeBase
					{
						OFFSET -0.200000 -0.500000 1.950000
						CHANNELS 3 Zrotation Yrotation Xrotation
						End Site
						{
							OFFSET 0.000000 0.000000 0.000000
						}
					}
				}
			}
		}
	}
	JOINT LowerBack
	{
		OFFSET 0.000000 0.000000 0.000000
		CHANNELS 3 Zrotation Yrotation Xrotation
		JOINT Spine
		{
			OFFSET -0.087000 1.940000 -0.288900
			CHANNELS 3 Zrotation Yrotation Xrotation
			JOINT Spine1
			{
				OFFSET 0.000000 1.950000 0.060000
				CHANNELS 3 Zrotation Yrotation Xrotation
				JOINT Neck
				{
					OFFSET 0.000000 0.000000 0.000000
					CHANNELS 3 Zrotation Yrotation Xrotation
					JOINT Neck1
					{
						OFFSET 0.000000 1.600000 0.340000
						CHANNELS 3 Zrotation Yrotation Xrotation
						JOINT Head
						{
							OFFSET 0.000000 1.667000 -0.240000
							CHANNELS 3 Zrotation Yrotation Xrotation
							End Site
							{
								OFFSET 0.000000 0.000000 0.000000
							}
						}
					}
				}
				JOINT LeftShoulder
				{
					OFFSET 0.000000 0.000000 0.000000
					CHANNELS 3 Zrotation Yrotation Xrotation
					JOINT LeftArm
					{
						OFFSET 2.700000 1.550000 -0.730000
						CHANNELS 3 Zrotation Yrotation Xrotation
						JOINT LeftForeArm
						{
							OFFSET 5.450000 0.000000 0.000000
							CHANNELS 3 Zrotation Yrotation Xrotation
							JOINT LeftHand
							{
								OFFSET 3.450000 0.000000 0.000000
								CHANNELS 3 Zrotation Yrotation Xrotation
								JOINT LeftHandIndex1
								{
									OFFSET 0.750000 0.000000 0.000000
									CHANNELS 3 Zrotation Yrotation Xrotation
									End Site
									{
										OFFSET 0.000000 0.000000 0.000000
									}
								}
							}
						}
					}
				}
				JOINT RightShoulder
				{
					OFFSET 0.000000 0.000000 0.000000
					CHANNELS 3 Zrotation Yrotation Xrotation
					JOINT RightArm
					{
						OFFSET -2.700000 1.550000 -0.730000
						CHANNELS 3 Zrotation Yrotation Xrotation
						JOINT RightForeArm
						{
							OFFSET -5.450000 0.000000 0.000000
							CHANNELS 3 Zrotation Yrotation Xrotation
							JOINT RightHand
							{
								OFFSET -3.450000 0.000000 0.000000
								CHANNELS 3 Zrotation Yrotation Xrotation
								JOINT RightHandIndex1
								{
									OFFSET -0.750000 0.000000 0.000000
									CHANNELS 3 Zrotation Yrotation Xrotation
									End Site
									{
										OFFSET 0.000000 0.000000 0.000000
									}
								}
							}
						}
					}
				}
			}
		}
	}
}
MOTION
Frames: 14
Frame Time: 0.016667
0.359920 17.197120 -1.424350 -7.702748 -18.532931 1.336927 -15.055033 12.381756 1.682694 11.803529 -1.260260 -14.110756 -6.088766 8.381268 24.462501 -0.581364 5.609022 2.775914 0.476740 0.230940 0.119190 18.719035 -8.807588 5.337789 -17.094216 10.696803 -45.389528 18.398950 -31.146344 73.780959 -2.872344 -14.832310 0.084267 0.213890 0.562330 0.268350 -4.533948 -2.028718 -8.003277 15.013582 -3.038321 10.680499 -2.613497 -1.894627 15.284516 0.874177 -2.969938 -9.383932 -10.047048 5.367429 46.207291 -4.121530 3.305080 -5.998100 -15.338038 -4.611386 4.017836 -17.611426 7.594377 -4.717324 -75.725959 -67.351688 46.116517 -3.909996 3.234473 0.613830 0.383120 -0.075050 0.449280 13.673114 4.920571 5.577079 30.108844 -10.229694 -12.179144 25.201142 50.536393 7.909790 1.522118 -1.679449 -0.324260 0.449360 -0.047380 -0.140640 
0.367170 17.144650 -1.446250 -7.323444 -18.891999 0.923032 -15.096760 12.411776 1.709797 11.450466 -1.336249 -14.557376 -5.956903 8.681093 26.001252 -0.557380 5.826783 2.714830 0.458150 0.206500 0.103290 18.677770 -8.714482 5.411796 -17.546843 10.804573 -45.674066 18.306273 -32.046590 75.457452 -2.971067 -15.177826 0.025310 0.206510 0.596920 0.261740 -4.407481 -2.223965 -8.116623 14.037362 -2.961056 11.959784 -2.187910 -1.828039 14.735994 0.758492 -3.112343 -9.262649 -10.336468 5.303219 45.635621 -3.902880 2.942860 -6.231300 -15.757829 -4.647310 3.781258 -16.902256 7.490725 -4.761328 -74.354207 -67.120958 44.997396 -3.918533 3.202058 0.625550 0.392060 -0.082870 0.459770 14.327626 5.221228 5.567890 29.809995 -10.265927 -12.359132 24.313950 51.250634 7.735853 1.506161 -1.657301 -0.348360 0.488120 -0.035340 -0.135790 
0.380840 17.032730 -1.476050 -7.256297 -19.864167 0.346964 -15.139093 12.421480 1.787462 11.665315 -1.460344 -15.547808 -6.046816 9.523586 29.123314 -0.511044 6.355974 2.510838 0.437630 0.187290 0.077140 18.634334 -8.587229 5.473599 -17.398404 11.372470 -45.659654 17.647725 -33.305679 78.647581 -3.136138 -15.754713 -0.089131 0.209610 0.616220 0.239500 -4.292346 -2.454144 -8.273141 13.441590 -3.013303 14.036558 -1.853750 -1.797971 13.892627 0.555739 -3.799904 -9.081089 -11.624971 5.826238 44.536691 -3.354110 2.614870 -7.213270 -16.351758 -4.416300 3.443407 -16.291568 7.731306 -4.994863 -72.592783 -67.101336 43.620862 -3.922055 3.168747 0.650250 0.385720 -0.097670 0.448400 15.280720 5.675643 5.470488 29.257475 -9.942515 -12.541298 22.519624 51.797226 7.210598 1.482433 -1.620149 -0.380520 0.526970 -0.002940 -0.142120 
0.402120 16.906170 -1.496890 -7.332804 -21.376917 0.258683 -15.175104 12.344340 1.910950 11.907333 -1.704017 -17.206133 -6.220592 10.561639 32.752526 -0.421002 7.018816 2.270191 0.443670 0.192050 0.078700 18.609716 -8.505300 5.451947 -16.490626 12.101008 -45.371929 16.049824 -33.876075 82.204132 -3.275634 -16.298302 -0.199034 0.234960 0.638670 0.239490 -4.241020 -2.512581 -8.359794 13.213334 -2.933934 15.085080 -1.574975 -1.706676 13.250669 0.399776 -4.154084 -8.505433 -11.949434 5.858477 42.759454 -3.852950 2.606270 -7.027820 -17.178952 -3.839308 2.975809 -16.857644 7.481413 -5.338037 -68.846087 -67.381575 41.037208 -3.935830 3.184323 0.629760 0.411130 -0.122360 0.456590 16.348247 5.504737 4.979054 28.615327 -8.910138 -12.329368 20.027639 51.756064 6.321868 1.465984 -1.637240 -0.397390 0.535160 -0.006240 -0.143920 
0.416380 16.786360 -1.522580 -7.086057 -22.807789 -0.062421 -15.213756 12.322208 2.061707 11.747665 -1.973319 -18.580873 -6.273312 11.354379 35.761924 -0.343592 7.569203 2.070934 0.481050 0.241540 0.085760 18.570728 -8.492107 5.332863 -15.014047 12.648117 -44.174770 13.831987 -33.449930 85.323680 -3.367148 -16.611693 -0.262557 0.283360 0.655420 0.244710 -4.152698 -2.612169 -8.400812 12.562058 -2.897309 16.313538 -1.447066 -1.669594 12.384426 0.100438 -4.678542 -7.694593 -12.569327 6.369421 40.798146 -3.671480 2.642980 -7.670640 -17.885741 -2.821606 2.147738 -17.968936 6.174571 -5.668759 -62.584807 -66.197282 35.859092 -3.919868 3.214444 0.616390 0.424620 -0.130320 0.478840 17.543264 5.004052 4.296318 28.814181 -7.351057 -12.203617 17.443658 51.505041 5.320998 1.448393 -1.653726 -0.402570 0.548820 -0.022010 -0.136320 
0.421880 16.689920 -1.551290 -6.705818 -24.135675 -0.264453 -15.259633 12.315847 2.266379 11.587494 -2.389213 -20.252446 -6.127977 12.132817 39.072356 -0.183814 8.133287 1.869155 0.506000 0.281200 0.101700 18.518947 -8.517948 5.145826 -13.249657 12.851880 -42.436544 11.561684 -32.339074 87.438488 -3.384293 -16.685445 -0.273497 0.298320 0.647050 0.257940 -4.019090 -2.724522 -8.445633 11.537845 -2.818886 17.137651 -1.183079 -1.666914 11.186772 -0.050233 -4.818444 -7.028252 -12.567309 6.837313 39.741971 -4.233600 3.381640 -6.829440 -18.807141 -2.096921 1.497619 -19.958822 4.746592 -6.185689 -52.725704 -64.124646 28.175950 -3.891193 3.261208 0.561480 0.442040 -0.135090 0.494160 18.721738 4.558705 3.664416 29.953166 -5.393113 -11.987503 13.914516 49.953743 3.832863 1.477057 -1.669240 -0.368940 0.508360 -0.058730 -0.120590 
0.422640 16.597390 -1.570450 -6.204554 -25.140980 -0.241701 -15.311783 12.271468 2.555480 11.605460 -3.019463 -22.129706 -6.606524 13.210489 42.394555 0.003496 8.823715 1.630967 0.500590 0.267960 0.103720 18.463121 -8.547835 4.886160 -11.604732 12.583735 -40.139522 9.688650 -31.135997 88.486045 -3.351660 -16.600533 -0.263059 0.283890 0.637910 0.271140 -3.865921 -2.851892 -8.494389 10.422361 -2.734747 17.344912 -0.919321 -1.656807 9.879038 -0.150289 -5.003449 -6.650284 -12.874366 7.229065 39.202863 -4.642160 3.892840 -5.510380 -19.330592 -1.477082 0.982364 -22.989860 2.953063 -6.671950 -41.634695 -60.600160 19.838886 -3.864777 3.263985 0.525210 0.450850 -0.147030 0.494260 19.431322 4.227687 3.335932 31.961216 -3.931084 -11.908137 11.407299 48.127047 2.727730 1.518678 -1.670358 -0.348100 0.457650 -0.074060 -0.114720 
0.412910 16.506830 -1.578140 -5.484687 -26.289491 0.096933 -15.368526 12.192945 2.862021 11.755194 -3.636920 -23.825531 -7.700509 14.459377 44.932023 0.165301 9.492820 1.397459 0.467720 0.226250 0.113200 18.411433 -8.640248 4.551233 -9.929409 12.049880 -37.615797 7.612398 -28.880010 88.219574 -3.208936 -16.187991 -0.204063 0.261650 0.632400 0.285710 -3.714010 -2.856592 -8.476801 9.097217 -2.306017 16.486359 -0.744124 -1.378604 8.889404 -0.103683 -4.520891 -6.015246 -11.790186 7.224818 38.800606 -5.482840 4.845210 -4.397170 -19.545008 -0.540259 0.218750 -26.303372 0.061233 -6.537972 -31.780076 -55.029537 12.870062 -3.896751 3.209323 0.485150 0.476610 -0.169730 0.456610 19.566312 3.052123 2.774786 35.080583 -2.362082 -11.664695 9.088762 45.485701 1.693168 1.562366 -1.637256 -0.339110 0.411330 -0.057800 -0.127380 
0.407800 16.452810 -1.581040 -4.681196 -27.669399 0.015171 -15.374671 12.222839 3.104438 11.239885 -4.194088 -24.691315 -8.420172 15.069894 46.358081 0.251148 9.871753 1.294407 0.413330 0.157390 0.061490 18.380493 -8.863286 4.189593 -8.520075 11.189397 -34.284634 6.043701 -26.271157 86.269395 -2.998810 -15.503958 -0.038011 0.229870 0.680490 0.262120 -3.643684 -2.818698 -8.397630 8.323789 -2.107453 16.001983 -1.211184 -1.112673 7.698831 -0.168469 -4.868804 -5.699563 -12.564336 7.884028 38.984262 -4.716040 4.822950 -3.277690 -19.920613 0.359553 -0.345891 -30.480929 -2.154386 -6.599624 -22.730471 -50.659831 7.598720 -3.922240 3.079448 0.483090 0.492970 -0.215330 0.449690 19.993767 2.467375 2.459926 38.141279 -0.926819 -11.205455 7.443576 41.396192 0.875789 1.600419 -1.543038 -0.372490 0.435180 -0.017890 -0.126550 
0.389200 16.399520 -1.570760 -4.476194 -28.936271 0.924863 -15.357191 12.157083 3.338281 11.430460 -4.630998 -25.790063 -9.810173 15.782648 46.670430 0.311269 10.177551 1.234613 0.306920 0.028500 -0.010470 18.392522 -9.107905 3.806550 -6.728822 10.188845 -31.054626 4.920476 -23.645136 82.928357 -2.717754 -14.679460 0.172621 0.179490 0.763000 0.222580 -3.705247 -2.586295 -8.227905 8.571643 -1.967409 13.951706 -1.886470 -0.915926 6.861179 -0.067359 -5.010802 -5.369608 -12.641108 8.175034 38.455245 -4.610870 5.145810 -0.910860 -19.318321 1.884899 -0.760158 -36.277810 -4.281764 -6.495523 -14.671414 -47.166302 3.669274 -3.987330 2.927305 0.456570 0.542760 -0.297580 0.434660 19.081188 0.999541 2.004434 42.237689 0.423917 -10.472749 6.754219 37.040448 0.387871 1.654873 -1.455399 -0.439980 0.467110 0.035600 -0.129960 
0.365860 16.384130 -1.575800 -4.643499 -30.642044 1.485077 -15.315508 12.187734 3.542588 12.046588 -4.726817 -26.126753 -11.213761 16.411753 46.552452 0.430665 10.353946 1.197375 0.276320 -0.000700 -0.066390 18.403505 -9.430511 3.427208 -4.458306 9.121625 -26.980607 3.607406 -20.351199 78.327650 -2.440272 -13.569118 0.473281 0.127710 0.793250 0.248040 -3.772814 -2.333790 -8.083097 9.052730 -1.649183 12.984157 -2.658616 -0.477405 5.912745 0.159657 -5.322376 -5.263012 -13.300751 8.496498 38.959325 -4.106610 5.058100 0.283890 -19.376971 3.194584 -1.027339 -42.013836 -5.405130 -7.031264 -8.004846 -46.246278 0.761337 -3.983081 2.868484 0.441250 0.549110 -0.291440 0.463790 18.534597 -0.009228 1.782406 46.278228 1.027640 -10.237346 5.742039 33.386604 -0.124591 1.724535 -1.402364 -0.408170 0.448380 0.039170 -0.089530 
0.344750 16.382040 -1.578670 -4.513107 -32.345465 1.684319 -15.270586 12.321232 3.694425 11.834451 -4.925602 -26.178210 -11.675933 16.338785 46.280393 0.484419 10.278466 1.233670 0.254690 -0.017150 -0.077920 18.395615 -9.820102 3.039008 -3.179804 7.465588 -22.448872 2.649783 -17.453901 72.524049 -2.131402 -12.313863 0.821077 0.089810 0.774020 0.226720 -3.775268 -2.143353 -7.906116 9.056866 -1.286990 12.172294 -3.364275 -0.069275 5.193680 0.551937 -5.555326 -5.384447 -13.813028 8.840909 39.616669 -3.925090 5.422610 0.818910 -19.281736 4.357535 -1.029570 -47.127842 -5.438985 -8.074806 -3.002198 -47.529286 -1.465083 -3.926907 2.805330 0.452130 0.518490 -0.267960 0.472840 17.585644 -0.869970 1.763188 50.252716 1.085053 -10.325250 5.319753 30.628910 -0.423684 1.800689 -1.341818 -0.399180 0.444670 0.021480 -0.077340 
0.319890 16.397150 -1.586930 -4.886692 -34.925996 2.269687 -15.179626 12.398203 3.831542 12.144862 -4.866567 -26.300007 -12.099049 16.445854 46.137595 0.526096 10.287880 1.238108 0.193030 -0.080270 -0.140220 18.437714 -10.236219 2.692684 -2.031797 5.882699 -18.034124 1.293726 -14.201306 65.639475 -1.749576 -10.875285 1.240106 0.039120 0.793170 0.194960 -3.975593 -1.772229 -7.691278 10.414004 -0.892018 11.197706 -4.919255 0.413680 4.565856 0.870131 -6.288480 -5.719579 -15.212379 10.068495 39.974218 -2.727740 5.711350 2.150790 -19.131174 5.660413 -0.772482 -51.370337 -4.168704 -9.655266 0.997715 -51.565731 -3.607143 -3.876646 2.774896 0.461050 0.500960 -0.282010 0.469940 16.552138 -1.640220 1.933054 53.765613 0.597380 -10.704452 5.833728 29.118244 -0.433997 1.851605 -1.288294 -0.414910 0.451800 0.046620 -0.062830 
0.294600 16.428960 -1.603450 -5.779056 -37.377589 3.332797 -15.103471 12.367467 4.036643 13.227514 -4.879585 -27.127687 -12.854228 16.915281 46.486521 0.568345 10.484183 1.156930 0.182220 -0.123130 -0.150070 18.488200 -10.551362 2.401600 -1.044246 4.210350 -13.888729 0.326562 -11.609946 57.976328 -1.397841 -9.461143 1.659921 0.000290 0.777430 0.205770 -4.219427 -1.403303 -7.526426 12.314931 -0.578356 10.565169 -6.446149 0.802389 3.992636 1.124385 -7.186737 -5.866511 -16.890123 11.177605 39.623075 -2.147630 6.011160 2.721680 -19.392288 7.419026 -0.645585 -54.332671 -2.195102 -11.220674 2.129256 -57.980289 -4.924378 -3.815972 2.841315 0.487700 0.478140 -0.285180 0.456530 15.982647 -2.832500 2.003168 55.944581 -0.529399 -11.395327 7.323792 29.304158 -0.123331 1.864171 -1.289702 -0.405740 0.413120 0.063280 -0.073380 
